<svg id="Layer_2" data-name="Layer 2" xmlns="http://www.w3.org/2000/svg" viewBox="0 0 3007.02 969.05"><defs><style>.cls-1{fill:#ea9d60}.cls-1,.cls-2,.cls-3,.cls-4,.cls-5,.cls-6{stroke-width:0}.cls-2{fill:#ffce61}.cls-3{fill:#d27572}.cls-4{fill:#5fb4ed}.cls-5{fill:#0c2c3d}.cls-6{fill:#b8c168}</style></defs><g id="Layer_1-2" data-name="Layer 1"><path class="cls-5" d="M1143.83 121.31c.11.07.25.03.32-.08.02-.04.03-.08.03-.12.02-2.54.02-15.47 0-38.79 0-3.7.09-7.65.29-11.85.2-4.17.04-10.67.87-15.75.59-3.61 1.83-9.15 3.72-16.62 1.15-4.53 2.7-8.3 4.66-11.32 3.53-5.43 6.36-9.28 8.47-11.54 1.03-1.09 3.7-3.19 8-6.28 7.15-5.14 13.93-6.35 23.17-8.23 9.99-2.04 19.66.56 28.65 3.01 5.98 1.63 10.42 4.92 15.78 9.07 2.19 1.7 4.27 3.88 6.24 6.53 4.4 5.93 7.26 10.28 8.94 16.43 1.88 6.88 3.18 12.68 3.91 17.4.86 5.53.57 11.33.88 17.47.07 1.31.11 3.65.11 7.01 0 146.38 0 250.3-.01 311.75 0 3.99-.84 10.66-2.51 20.03-1.66 9.34-4.84 15.84-11.36 21.86-3.93 3.63-9.76 10.77-14.83 13.55-3.73 2.06-7.01 3.33-9.84 3.8-6.31 1.07-15.43 2.9-23.47 1.87-11.43-1.48-19.99-2.18-28.34-10.3-5.29-5.14-9.77-9.69-13.42-13.65a.465.465 0 0 0-.63-.05c-10.21 8.04-21.55 14.03-34.01 17.98-9.29 2.94-19.18 4.21-28.86 5.45-6.55.83-13.66 1.12-21.32.85-2.49-.08-7.8-.68-15.94-1.8-6.94-.95-12.2-1.9-15.78-2.84-16.43-4.33-31.17-12.25-44.21-23.76-.66-.59-5.28-5.18-13.86-13.79-5.39-5.42-9.69-10.31-12.88-14.68-13.84-18.95-22.49-41.62-26.41-64.56-2.6-15.18-4.69-31.06-4.72-46.46 0-4.14.17-12.55.52-25.22.31-11.09 1.82-22.97 4.51-35.65 2.43-11.48 4.98-20.97 7.64-28.46 5.57-15.69 14.24-29.72 24.59-42.37 8.1-9.89 17.79-17.95 29.29-25.6 14.75-9.82 30.01-14.42 47.58-17.89 16.41-3.24 32.66-3.56 48.77-.95 8.29 1.34 16.43 3.17 24.42 5.48a91.951 91.951 0 0 1 21.04 9.07Zm53.37-98.03c-.85 0-1.7.08-2.54.25-20.88 4.13-26.85 23.17-26.88 42.12-.02 16.95-.03 51.68-.02 104.19 0 .17-.14.31-.31.31-.09 0-.17-.04-.23-.1-8.03-8.89-17.05-16.8-27.05-23.73-20.92-14.48-44.61-18.71-69.84-17.83-31.11 1.09-56.67 12.42-76.68 33.99-29.43 31.72-36.29 76.38-34.25 117.92 2.02 41.16 16.54 84.25 49.73 110.68 19.95 15.9 43.03 23.54 69.24 22.91 25.92-.63 48.76-9.38 68.52-26.26 7.19-6.15 13.99-12.95 20.38-20.41.1-.12.29-.14.41-.03.06.06.1.14.1.22-.12 5.34.07 10.27.56 14.78 1.81 16.44 12.6 30.31 29.49 31.54 11.49.84 20.62-2.53 27.4-10.1 6.49-7.24 8.86-17.79 9.14-27.18.03-.89.03-105.19.01-312.9 0-18.39-5.65-35.93-25.97-39.92-3.62-.71-6.9-.45-11.21-.45ZM1909.07 118.65a.16.16 0 0 0 0 .23c4.73 4.66 8.87 10.12 12.41 16.37 1.46 2.59 2.6 5.6 3.43 9.02 1.49 6.18 3.43 13.24 3.66 18.14.28 6.13.57 16.22.57 23.99.03 78.63 0 143.68-.06 195.13 0 5.88-.25 10.61-.72 14.18-1.1 8.19-2 16.51-6.04 24.81-1.34 2.75-3.65 5.77-6.94 9.07-7.6 7.63-11.59 11.59-11.97 11.88-5.51 4.1-10.53 6.49-15.08 7.17-9.15 1.36-14.1 2.07-14.85 2.13-6.68.54-13.24-.79-19.76-1.76-4.57-.67-8.76-2.18-12.57-4.53-5.29-3.25-9.97-9.03-14.06-12.82-3.56-3.29-6.23-6.57-8.01-9.84-4.63-8.49-5.67-17.25-6.89-27.05-.43-3.45-.65-8.54-.64-15.27.03-81.81.03-145.5 0-191.09 0-8.63.55-15.57.39-22.01-.09-3.36.96-9.77 3.14-19.24 2.65-11.53 8.25-20.43 16.05-28.18.21-.21.23-.54.05-.78-.03-.04-2.34-2.32-6.93-6.84-5.71-5.63-9.24-11.18-10.48-18.84-1.43-8.85-2.93-16.17-1.7-24.62.09-.67.11-1.35.06-2.02-.63-8.24.51-13.06 2.44-21.16 2.13-8.92 5.58-14.31 10.97-20.92 3.81-4.66 8.38-7.76 14.01-11.7 7.15-5 17.72-6.9 24.67-8.34 4.97-1.04 11.05-.56 17.04.86 7.88 1.87 12.59 2.66 18.45 5.92 4.36 2.42 12.07 7.74 15.47 12 3.53 4.4 8.16 10.56 9.7 16.58 2.35 9.16 4.08 15.32 3.84 23.35-.15 5.15.78 11.21.18 15.94-1.63 12.67-2.06 22.17-10.56 30.97-2.98 3.09-6.07 6.18-9.27 9.27ZM2337.66 118.64a.16.16 0 0 0 0 .23c4.73 4.66 8.87 10.12 12.42 16.37 1.46 2.59 2.6 5.6 3.43 9.02 1.49 6.18 3.43 13.24 3.66 18.14.28 6.13.57 16.22.57 23.99.03 78.63 0 143.68-.06 195.13 0 5.88-.25 10.61-.72 14.18-1.1 8.19-2 16.51-6.04 24.81-1.34 2.75-3.65 5.77-6.94 9.07-7.6 7.63-11.59 11.59-11.97 11.88-5.51 4.1-10.53 6.49-15.08 7.17-9.15 1.36-14.1 2.07-14.85 2.13-6.68.54-13.24-.79-19.76-1.75-4.57-.67-8.76-2.18-12.57-4.53-5.29-3.25-9.97-9.03-14.06-12.82-3.56-3.29-6.23-6.57-8.01-9.84-4.63-8.49-5.67-17.25-6.89-27.05-.43-3.45-.65-8.54-.64-15.27.03-81.81.03-145.5 0-191.09 0-8.63.55-15.57.39-22.01-.09-3.36.96-9.77 3.14-19.24 2.65-11.53 8.24-20.43 16.04-28.18.21-.21.23-.54.05-.78-.03-.04-2.34-2.32-6.93-6.84-5.71-5.63-9.24-11.18-10.48-18.84-1.43-8.85-2.93-16.17-1.7-24.62.09-.67.11-1.35.06-2.02-.63-8.24.51-13.06 2.44-21.16 2.13-8.92 5.58-14.31 10.97-20.92 3.81-4.66 8.38-7.76 14.01-11.7 7.15-5 17.72-6.91 24.67-8.35 4.97-1.04 11.05-.56 17.04.86 7.88 1.87 12.59 2.66 18.45 5.92 4.36 2.42 12.07 7.74 15.47 12 3.53 4.4 8.16 10.56 9.7 16.58 2.35 9.16 4.08 15.32 3.84 23.35-.15 5.15.78 11.21.18 15.94-1.63 12.67-2.06 22.17-10.56 30.97-2.98 3.09-6.07 6.18-9.27 9.27ZM124.26 279.89c-.26 0-.47.21-.47.46-.02 56.47-.01 87.04.02 91.72.05 8.31-.15 14.53-.61 18.64-1.52 13.69-3.08 26.45-12.16 36.65-.65.72-3.48 3.6-8.51 8.65-3.74 3.75-6.83 6.35-9.27 7.78-4.57 2.68-8.86 4.32-12.86 4.91-7.45 1.11-16.04 2.84-23.74 1.89-5.57-.69-10.09-1.35-13.57-2-7.1-1.31-13.26-4.48-18.49-9.5-3.29-3.16-6.91-6.77-10.86-10.83C4.05 418.3 2.22 405.21.66 391.58c-.44-3.83-.66-9.29-.66-16.39V90.77c0-7.05.31-15.27.63-21.2.42-7.87 2.85-16.98 4.65-23.52 1.18-4.29 3.26-8.97 6.11-12.81 1.81-2.45 4.99-7.45 8.12-9.98 6.41-5.2 12.69-9.79 20.82-11.86 7.92-2.01 13.26-3.27 16.01-3.77 4.21-.76 9.53-1.02 14.69-1.03 59.44-.02 119.63-.02 180.56 0 4.17 0 7.86.35 11.05 1.05 8.23 1.79 13.45 3.07 15.66 3.82 4.7 1.6 8.3 4.14 12.62 7.26 5.93 4.28 10.68 10.93 13.49 16.23 2.68 5.04 3.93 12.97 5.19 18.67.43 1.97.48 5.33.14 10.1-.04.63-.02 1.26.05 1.89.56 4.48.69 7.84.39 10.08-.68 5.1-1.36 9.84-2.05 14.22-.89 5.69-4.46 11.38-8.98 15.63-5.08 4.79-9.71 10.72-15.3 13.66a36.947 36.947 0 0 1-11 3.72c-6.41 1.1-11.4 1.82-14.96 2.15-3.25.3-8.28.43-15.1.39-2.73-.01-42.3-.02-118.71 0-.17 0-.3.13-.3.3v35.93c0 .34.28.62.63.62 56.59 0 90.98.03 103.17.12 2.92.02 4.4-.03 6.7.35 3.61.59 9.03 1.81 16.28 3.68 3.01.78 5.43 1.74 7.28 2.89 6.15 3.83 10.16 6.8 12.05 8.9 1.83 2.04 3.8 4.59 5.91 7.66 2.5 3.64 3.99 6.6 5.11 11.27 2.02 8.4 3.47 12.9 2.94 19.86-.34 4.5.69 8.7.38 13.33-.18 2.61-.86 7.33-2.04 14.16-1.82 10.49-8.95 16.1-16.85 23.89-8.95 8.82-20.36 9.64-32.21 11.03-3.51.41-8.38.56-14.59.44-3.69-.07-35.12-.08-94.28-.01Z"/><path class="cls-1" d="M1197.2 23.28c4.31 0 7.59-.26 11.21.45 20.32 3.99 25.97 21.53 25.97 39.92.02 207.71.02 312.01-.01 312.9-.28 9.39-2.65 19.94-9.14 27.18-6.78 7.57-15.91 10.94-27.4 10.1-16.89-1.23-27.68-15.1-29.49-31.54-.49-4.51-.68-9.44-.56-14.78a.29.29 0 0 0-.51-.19c-6.39 7.46-13.19 14.26-20.38 20.41-19.76 16.88-42.6 25.63-68.52 26.26-26.21.63-49.29-7.01-69.24-22.91-33.19-26.43-47.71-69.52-49.73-110.68-2.04-41.54 4.82-86.2 34.25-117.92 20.01-21.57 45.57-32.9 76.68-33.99 25.23-.88 48.92 3.35 69.84 17.83 10 6.93 19.02 14.84 27.05 23.73.11.13.31.14.44.02.07-.06.1-.14.1-.23 0-52.51 0-87.24.02-104.19.03-18.95 6-37.99 26.88-42.12.84-.17 1.69-.25 2.54-.25ZM1031.87 244.7c-6.51 38.45.02 93.07 41.61 110.04 18.19 7.42 39.06 5.68 55.94-4.55 17.52-10.6 27.96-30.66 31.74-50.25 6.9-35.73 2.8-83.73-29.26-107.54-9.89-7.33-20.72-11.29-32.49-11.87-39.02-1.91-61.63 29.29-67.54 64.17Z"/><path class="cls-3" d="M1835.24 62.93c-.6-10.57 2.07-19.34 10.02-26.6 12.9-11.79 32.82-12.97 46.8-3.19 8.85 6.2 12.92 15.33 13.51 25.84.59 10.51-2.43 20.04-10.53 27.19-12.79 11.28-32.73 12.34-46.86 2.07-8.72-6.33-12.35-14.74-12.94-25.31Z"/><path class="cls-1" d="M2334.16 58.97c.59 10.51-2.43 20.04-10.52 27.18-12.8 11.29-32.73 12.34-46.87 2.08-8.71-6.33-12.34-14.74-12.93-25.32-.6-10.57 2.07-19.33 10.02-26.6 12.9-11.78 32.82-12.96 46.8-3.18 8.85 6.2 12.91 15.33 13.5 25.84Z"/><path class="cls-4" d="M100.2 243.32c.03 35.24.02 77.52-.02 126.83 0 7.78-1.89 18.6-5.92 25.64-6.82 11.9-17.46 17.95-31.91 18.15-18.17.25-31.88-10.3-36.45-27.59-1.54-5.83-2.31-11.15-2.31-15.95-.03-83.57-.04-180.24-.03-289.99.01-19.29 2.41-40.09 24.11-47.26 6.41-2.11 12.39-3.17 17.94-3.18 60.26-.07 122.84-.08 187.73-.03 18.76.02 34.55 10.39 33.36 30.79-.99 16.95-12.38 25.92-28.82 27.47-2.41.22-5.27.33-8.59.33H100.67c-.25 0-.46.21-.46.46v96.22c0 .24.2.44.44.44 53.61-.07 96.76-.06 129.45.03 3.24.01 7.1.7 11.57 2.06 13.31 4.04 20.26 15.6 18.92 29.55-1.91 19.93-17.86 25.7-35.5 25.69-61.1-.05-102.62-.04-124.56.01-.18 0-.33.15-.33.33Z"/><path class="cls-5" d="M507.09 426.51c-1.81 1.27-3.41 2.39-4.78 3.34-10.45 7.27-21.04 12.27-31.76 14.98-7.5 1.89-17.1 3.45-28.79 4.67-9.89 1.03-19.57.99-29.03-.13-12.05-1.43-21.56-3.28-28.54-5.55-10.2-3.31-19.72-8.52-28.55-15.62-5.08-4.08-12.04-11.49-16.28-15.82-12.19-12.44-18.32-26.94-21.7-45.26-2.63-14.26-4.24-29.52-4.19-46.37.07-25.09.08-72.37.02-141.85 0-3.66.13-8.15.42-13.47.24-4.49.73-8.32 1.46-11.49 1.98-8.56 3.35-16.21 7.71-22.83 2.11-3.19 5.49-8.19 8.45-10.89a70.8 70.8 0 0 1 12.84-9.32c5.7-3.23 12.95-4.19 20.15-5.9 9.17-2.17 21.17 1.22 29.37 3.58 5.51 1.59 8.92 4.33 14.82 8.5 6.12 4.33 11.21 11.71 14.64 18.08 1.94 3.6 2.78 7.26 4.06 12.41 1.17 4.73 1.98 8.41 2.41 11.02 1.04 6.29.59 13.01.98 19.62.08 1.3.12 3.92.12 7.87 0 42.28-.01 71.3 0 87.07 0 16.17-.25 28.83 2.34 42.85.51 2.81 2.06 6.59 4.64 11.36 1.21 2.26 3.17 4.22 5.86 5.89 4.4 2.72 12.14 2.33 16.6 1.94 2.18-.19 4.9-1 8.16-2.43 10.66-4.64 19.81-13.58 22.83-25.09.47-1.81.97-6.35 1.5-13.64.65-9.13.98-15.42.97-18.87-.03-54.25.03-85.75.18-94.51.06-3.64.12-7.42.18-11.35.15-9.68 2.07-17.8 4.46-26.64 1.66-6.18 4.02-9.88 7.86-15.46 3.43-4.99 8.36-9.6 14.8-13.85 3.79-2.49 6.81-4.05 9.05-4.66 10.81-2.96 20.09-5.81 31.07-3.37 7.63 1.71 13.59 2.6 17.82 5.04 5.65 3.25 11.87 7.39 16.04 12.32 5.88 6.95 9.71 13.48 11.8 22.4 2.09 8.92 3.5 14.3 3.68 22.07.17 7.87.43 14.83.43 22-.03 121.57-.03 184.65 0 189.23.05 8.12-.15 14.12-.62 18-1.3 10.88-2.26 19.46-7.38 28.01-2.67 4.46-9.62 10.44-12.29 13.26-5.89 6.26-11.81 10.01-20.07 11.19-6.35.91-12.95 2.48-19.18 1.77-10.53-1.21-20.96-1.85-29.52-9.72-2.21-2.03-6.94-6.8-14.2-14.3a.64.64 0 0 0-.83-.08ZM733.61 128.81c.2.31.62.4.93.2 0 0 .02-.01.02-.02 5.47-3.84 9.27-6.4 11.41-7.69 13.6-8.18 28.41-12.05 44.24-14.96 14.87-2.73 29.74-2.64 44.61.29 10.97 2.16 24.13 5.45 35.75 11.52 9.19 4.8 18.33 11.57 27.4 20.32 1.86 1.79 5.24 6.18 10.13 13.17 6.22 8.89 10.84 18.43 13.85 28.63 3.41 11.56 5.48 23.16 6.21 34.79.66 10.61 1.01 22.47 1.05 35.58.07 21.78.09 63.83.07 126.16 0 7.84-.19 13.38-.56 16.62-.66 5.83-1.49 11.31-2.5 16.44-1.51 7.69-4.82 14.18-9.94 19.49-.31.32-3.39 3.4-9.22 9.25-4.25 4.26-8.9 7.26-13.94 9.01-1.89.66-4.97 1.29-9.26 1.88-8.08 1.1-11.81 1.97-19.11.99-7.82-1.06-15.71-1.67-23.02-6.02-2.69-1.6-5.76-4.21-9.19-7.83-3.68-3.88-8.36-7.79-11.45-12.37-5.86-8.69-6.83-17.44-8.33-28.58-.55-4.03-.82-8.73-.82-14.08.02-71.59 0-112.08-.04-121.48-.06-12.75-2.78-24.65-8.17-35.69-.16-.31-.4-.58-.7-.76-7.73-4.7-15.98-5.85-24.61-2.51-4.19 1.62-8.03 3.56-11.52 5.81-2.89 1.87-5.01 3.84-6.35 5.91-3.39 5.25-5.97 10.31-7.74 15.16-1.39 3.83-2.29 8.83-2.68 14.99-.66 10.3-.98 18.59-.97 24.87.05 36.55.02 67.74-.08 93.57-.04 10.71-1.29 21.19-3.46 30.46-1.6 6.85-5.16 13.03-10.68 18.55-8.32 8.33-15.42 16.51-27.03 18.23-7.14 1.06-15.29 2.95-23.77 1.78-9.73-1.32-15.64-1.72-22.55-5.8-5.37-3.18-10.51-9.49-15.12-13.79-6.63-6.2-10.67-13.83-12.25-22.8-1.36-7.74-2.67-16.15-2.66-24.98.02-14.92.02-80.93 0-198.04 0-7.66.38-13.1.34-19.73-.04-7.82 1.84-14.97 4.06-23.59 1.79-6.96 4.21-10.71 8.49-16.84 5.04-7.22 14.56-14.01 21.72-16.42.85-.28 5.16-1.32 12.93-3.13 5.61-1.3 11.48-1.26 16.98 0 7.5 1.73 13.29 2.68 19.85 6.53 7.12 4.17 13.01 9.81 17.68 16.91ZM1496.79 227.08c-7.94 5.98-14.5 6.26-25.5 7.67-1.69.21-3.41.12-5.08-.26-.18-.04-2.81-.41-7.9-1.11-9.26-1.28-18.25-5.19-28.18-7.55-5.95-1.41-11.12-.09-16.18 3.39-.39.27-.72.61-.97 1-2.7 4.14-4.92 8.78-6.66 13.93-3.53 10.44-5.7 21.19-6.53 32.25-.88 11.63-1.36 22.63-1.44 33-.17 21.45-.2 44.91-.09 70.4.04 10.24-1.01 20.87-3.14 30.21-1.75 7.65-4.65 13.56-8.72 17.73-10.15 10.43-16.44 18.25-28.06 20.67-2.86.59-7.03 1.25-12.5 1.98-8 1.06-13.68.04-22.94-1.35-4.03-.61-7.85-1.89-11.46-3.84-2.75-1.49-5.88-4-9.37-7.53-6.03-6.09-9.12-9.22-9.29-9.39-7.89-8.12-9.63-18.9-11.21-31.25-.61-4.84-.92-9.94-.93-15.29-.04-43.07-.04-107.93-.01-194.59 0-2.39.08-5.4.23-9.01.16-3.59 0-8.19.4-11.99.93-8.82 2.8-17.66 5.6-26.51 2.04-6.45 5.53-11 9.14-16.07 1.63-2.3 3.12-4 4.47-5.09 5.39-4.36 10.17-8.08 16.61-10.1 1.89-.59 6.1-1.6 12.64-3.02 6.04-1.31 12.02-1.32 17.94-.01 6.65 1.47 10.95 2.51 12.9 3.1 5.32 1.63 8.07 3.79 13.32 7.56 2.62 1.89 4.83 4.11 6.64 6.64.16.22.46.27.68.11 0 0 .02-.01.03-.02 5.42-4.51 10.34-7.9 14.76-10.17 5.69-2.94 10.95-3.99 18.88-5.86 4.01-.95 7.46-1.58 10.34-1.89 8.83-.96 18.26-.32 28.27 1.92 8.88 1.99 15.11 3.6 18.68 4.83 10.81 3.73 20.35 8.96 28.62 15.7 4.75 3.87 8.95 8.77 12.61 14.72 2.04 3.31 3.21 5.92 3.5 7.82.03.17.19.3.36.27.08-.01.16-.06.21-.12 3.7-4.59 8.87-9.4 15.5-14.43 13.94-10.58 29.42-18.11 46.43-22.59 12.74-3.36 26.53-6.42 40.02-7.51 17.93-1.44 35.41-1.37 52.44.21 14.69 1.36 29.61 4.29 44.74 8.78 16.49 4.89 30.54 13.49 42.16 25.8 9.57 10.13 16.37 22.15 20.41 36.06 4.81 16.55 7.53 32.09 8.15 46.62.55 12.95.77 28.36.66 46.25-.19 30.61-.33 49.69-.41 57.25 0 1.09.43 4.66 1.3 10.71.49 3.41 1.3 6.9 2.44 10.49 2.61 8.18 5.29 18.53 8.05 31.05.97 4.42 1.14 8.18.49 11.27-.13.63-.15 1.29-.04 1.93.67 4.21.9 7.21.69 8.98-.9 7.4-1.59 12.04-2.06 13.91-2.24 8.75-8 13.13-15.91 21.14-6.61 6.7-13.11 11.49-21.33 12.83-5.65.91-10.32 1.58-14 2.01-4.87.55-9.2-.34-14.74-1.13-3.76-.53-6.6-1.21-8.51-2.02-4.06-1.71-7.46-3.81-10.2-6.28-4.85-4.38-11.25-10.79-19.22-19.22a.537.537 0 0 0-.71-.07c-5.01 3.57-11.81 7.56-20.42 11.97-12.74 6.53-25.3 10.87-37.69 13.03-2.58.45-8.24 1.29-16.98 2.52-12.49 1.75-25.46 1.82-38.93.19-7.24-.87-13.14-1.82-17.69-2.83-15.24-3.39-28.15-9.56-38.72-18.52-2.72-2.31-7.35-6.73-13.88-13.28-5.35-5.35-9.42-10.29-12.21-14.8-4.81-7.75-8.16-15.52-10.04-23.31-1.07-4.4-2.14-11.29-3.23-20.66-.55-4.78-.65-9.22-.29-13.32.46-5.3-.02-11.75.68-17.78.57-4.81 2.01-11.62 4.33-20.44 3.27-12.45 9.05-21.67 16.94-31.71 3.37-4.29 7.61-8.59 12.71-12.88.23-.19.26-.52.07-.75-.02-.02-.03-.04-.05-.05-3.41-3.05-7.91-7.46-13.5-13.25-2.99-3.09-5.04-6.63-6.16-10.63-.29-1.05-.77-3.78-1.43-8.2a.326.326 0 0 0-.38-.28c-.05 0-.11.03-.15.06Zm65.21 1.67c1.17-.24 2.08-.66 2.72-1.27 1.42-1.33 2.96-3.19 4.62-5.58 2.74-3.95 7.14-10.38 13.2-19.29 3.09-4.56 7.43-9.01 13-13.35 9.59-7.48 20.59-10.45 32.82-11.52 17.89-1.56 46.8-2.28 57.25 14.37 6.87 10.93 9.23 24.8 9.61 37.75 0 .19-.12.37-.31.43a823.895 823.895 0 0 1-63.95 16.21c-37.09 7.84-56.4 11.94-57.95 12.3-36.09 8.38-64.94 34.26-65.77 73.35-.16 7.5.44 14.07 1.79 19.71 8.41 34.99 38.07 57.25 73.07 61.19 27.49 3.1 55.55-1.39 80.35-14.29 12.97-6.75 25.32-14.7 37.04-23.87.27-.21.66-.15.86.11.01.02.03.04.04.06 5.72 9.71 12.32 18.62 19.81 26.72 5.94 6.42 13.89 11.88 22.86 12.15 6.33.19 12.16-1.25 17.48-4.32 10.04-5.78 18.34-15.97 16.06-28.21-1.41-7.56-3.83-15.65-8.42-32.01-1.39-4.97-2.58-11.54-3.56-19.71-.6-5.05-.83-11.74-.7-20.05.23-14.91.39-34.14.47-57.71.05-16.19-.08-26.52-.4-31-1.37-19.2-4.48-37.49-13.24-52.88-14.91-26.2-44.56-35.33-72.98-38.5-15.27-1.7-30.75-2.22-46.44-1.57-16.39.67-30.55 2.67-42.5 5.99-26.71 7.41-52.22 21.48-64.18 47.66-4.92 10.75-7.88 27.12-.35 37.13 5.86 7.78 13.88 11.8 24.06 12.07 5.23.14 9.49-.39 12.78-1.58a.97.97 0 0 0 .4-.24c.12-.12.28-.21.46-.25Zm40.95-.16c-.16.15-.17.39-.02.55.09.1.23.15.36.12l55.91-12.36c.24-.04.4-.27.35-.51a.44.44 0 0 0-.29-.34c-5.52-2.04-9.99-2.03-16.31-2.06-6.27-.03-11.04.21-14.3.72-7.6 1.17-14.76 4.27-21.49 9.29-1.92 1.43-2.61 3.19-4.21 4.59ZM2190.29 250.71c-.26.2-.31.58-.1.84.02.02.04.05.06.07.07.07 2.06 1.58 5.97 4.54 7.26 5.53 13.14 12.85 18.41 20.65 3.94 5.83 6.69 11.48 8.24 16.94 2.77 9.76 5.29 19.52 4.94 29.34-.2 5.33.69 11.12.28 16.89-.63 8.88-1.73 17.45-3.3 25.72-2.16 11.37-6.48 21.77-12.96 31.18-2.61 3.79-6.28 8.03-11.01 12.72-6.37 6.31-10.39 10.23-12.05 11.77-3.93 3.63-8.99 7.15-15.18 10.55-12.88 7.07-27.24 11.89-43.09 14.46-12.47 2.03-22.74 3.33-30.83 3.91-14.63 1.04-29.05.79-43.26-.75-2.49-.27-8.78-1.18-18.85-2.74-16.83-2.61-32.57-8.17-47.22-16.69-6.25-3.64-12.69-8.27-18.35-13.94-6.69-6.72-10.87-10.93-12.54-12.63-5.48-5.57-10.21-13-14.2-22.29-3.36-7.85-4.11-17.61-5.24-27.25-.21-1.77-.02-4.65.55-8.65.07-.53.09-1.05.05-1.58-.64-8 .54-13.08 2.31-20.32 1.13-4.61 2.58-8.24 4.36-10.89 4.38-6.52 7.48-10.59 13.29-14.88 4.37-3.23 8.35-5.93 13.58-7.36.16-.04.26-.2.22-.37a.194.194 0 0 0-.09-.14c-4.97-4.87-9.42-9.25-13.9-14.18-7.46-8.21-12.28-17.74-14.45-28.57-.41-2.01-1.04-6.18-1.91-12.52-.79-5.81-1.12-10.01-.98-12.62.49-9.16-.08-18.36 1.99-27.92 1.73-7.98 3.22-13.83 4.48-17.55 2.9-8.58 7.41-15.91 13.56-24.46 2.78-3.87 5.43-7.05 7.95-9.56 14.37-14.23 31.19-24.24 50.46-30.01 2.63-.79 8.3-2.16 17.03-4.13 5.84-1.32 11.6-2.27 17.28-2.85 30.14-3.07 60.32.74 89.15 10 14.39 4.61 27.57 11.83 39.52 21.64 9.39 7.72 15.96 15.9 21.9 26.21 1.84 3.18 3.23 6.6 4.18 10.26 2.03 7.86 4.06 14.32 3.54 21.38-.17 2.32-.13 4.54.1 6.66.36 3.21.46 5.44.29 6.67-1.34 10.3-1.4 16.33-5.45 23.45-1.03 1.82-3.09 4.26-6.18 7.31-3.29 3.27-6.33 6.3-9.12 9.1-.96.96-2.34 1.72-3.43 2.59Zm-113.46-40.2 17.88 4.81c.14.04.29-.03.34-.18a.261.261 0 0 0-.14-.32c-5.12-2.79-12.53-5.9-18.08-4.46-.04.02-.06.06-.05.1 0 .02.03.04.05.05Zm26.64 131.14c-8.31-3.44-15.25-5.95-20.8-7.52-.81-.23-13.45-3.56-37.92-10.01a.298.298 0 0 0-.36.22c-.02.08 0 .17.04.24 4.56 6.27 10.3 12.32 17.75 16 3.81 1.89 8.48 3.09 14.03 3.59 7.58.69 14.88.65 21.91-.12 2.09-.22 3.9-.82 5.41-1.81.15-.1.2-.3.11-.45a.39.39 0 0 0-.17-.14ZM2483.58 128.99c5.47-3.83 9.27-6.39 11.41-7.68 13.6-8.18 28.41-12.05 44.24-14.96 14.87-2.73 29.74-2.64 44.61.29 10.97 2.16 24.13 5.45 35.75 11.52 9.19 4.8 18.32 11.57 27.39 20.32 1.86 1.79 5.24 6.18 10.13 13.17 6.22 8.89 10.84 18.43 13.85 28.63 3.41 11.56 5.48 23.16 6.21 34.79.66 10.61 1.01 22.47 1.05 35.58.07 21.78.09 63.83.06 126.16 0 7.84-.19 13.38-.56 16.62-.66 5.83-1.49 11.31-2.5 16.44-1.51 7.69-4.82 14.18-9.94 19.49-.31.32-3.39 3.4-9.22 9.25-4.25 4.26-8.9 7.26-13.94 9.01-1.89.66-4.97 1.28-9.26 1.87-8.08 1.1-11.81 1.97-19.11.99-7.82-1.06-15.71-1.67-23.02-6.02-2.69-1.6-5.76-4.21-9.19-7.83-3.68-3.88-8.36-7.79-11.45-12.37-5.86-8.69-6.83-17.44-8.33-28.58-.55-4.03-.82-8.73-.82-14.08.03-71.58.02-112.07-.03-121.47-.06-12.75-2.78-24.65-8.17-35.69-.16-.31-.4-.58-.7-.76-7.73-4.7-15.98-5.85-24.61-2.52-4.19 1.62-8.03 3.56-11.52 5.81-2.89 1.87-5.01 3.84-6.35 5.91-3.39 5.25-5.97 10.31-7.74 15.16-1.39 3.83-2.29 8.83-2.68 14.99-.66 10.3-.98 18.59-.97 24.87.05 36.55.02 67.74-.08 93.57-.04 10.71-1.3 21.19-3.47 30.46-1.6 6.85-5.16 13.03-10.68 18.55-8.32 8.33-15.42 16.51-27.03 18.23-7.14 1.06-15.29 2.95-23.77 1.78-9.73-1.33-15.64-1.73-22.55-5.81-5.37-3.18-10.5-9.49-15.11-13.79-6.63-6.2-10.67-13.83-12.25-22.8-1.36-7.74-2.67-16.15-2.66-24.98.02-14.92.02-80.93.01-198.03 0-7.66.38-13.1.34-19.73-.04-7.82 1.84-14.97 4.06-23.59 1.79-6.96 4.21-10.71 8.49-16.84 5.04-7.22 14.56-14.01 21.72-16.42.85-.28 5.16-1.32 12.93-3.13 5.61-1.3 11.48-1.26 16.98 0 7.5 1.73 13.29 2.68 19.85 6.53 7.12 4.17 13.01 9.81 17.68 16.91.2.31.62.4.93.2 0 0 .02-.01.02-.02ZM2725.7 400.56a.392.392 0 0 0 .11-.63c-17.8-17.81-29.03-43.02-34.07-67.36-3.61-17.43-5.63-34.43-6.05-50.98-.1-3.81.07-12.62.5-26.44.56-17.83 3.95-34.56 8.78-51.91 3.79-13.66 9.47-26.22 17.03-37.69 5-7.59 11.38-16.12 18.12-22.64 14.61-14.14 32.78-25.97 52.68-31.28 1.91-.51 5.91-1.49 12-2.93 17.11-4.07 34.74-4.73 51.53-2 6.03.98 13.5 2.68 22.42 5.1 12.57 3.41 24.06 9.23 34.46 17.46.36.29.89.22 1.18-.14l.06-.09c3.45-5.77 7.86-10.48 13.23-14.11 5.06-3.43 7.26-5.04 11.73-6.46 1.66-.53 5.73-1.52 12.22-2.97 9.49-2.13 17.12-.15 26.72 2.03 3.81.87 6.85 1.9 9.14 3.11 11.3 5.95 19.8 16.15 23.24 28.34 2.93 10.43 4.74 19.24 5.41 26.43.49 5.27.77 13.69.82 25.26.07 16.04.08 87.6.02 214.69 0 6.51-.82 16.06-2.43 28.64-1.25 9.74-2.56 17.66-3.93 23.76-3.99 17.72-10.83 33.86-22.32 47.36-2.13 2.51-7.68 8.12-16.65 16.84-14.95 14.53-36.09 22.94-56.6 26.83-17.61 3.35-35.18 5.31-52.71 5.88-19.26.64-37.09-1.08-56.48-4.29-24.51-4.06-50.15-13.41-68.53-29.22-2.05-1.76-8.1-7.86-18.17-18.31-4.69-4.87-8.31-10.97-10.86-18.31-1.92-5.49-2.74-13.47-3.35-18.19-.38-2.87-.32-6.58.17-11.13.1-.87.12-1.75.06-2.63-.27-4.05-.32-6.53-.15-7.44 1.27-6.59 2.59-12.29 3.96-17.1 1.15-4 3.73-7.34 7.31-12.32 1.59-2.2 3.2-3.99 4.84-5.37 4.97-4.17 9.82-7.43 14.56-9.79Zm39.96-256.31c-36.85 22.8-53.54 63.85-55.97 105.65-1.15 19.75.03 38.56 3.56 56.41 10.34 52.37 44.98 95.74 101.09 100.52 20.93 1.79 42.58-.95 60.72-10.73 14.6-7.87 27.81-20.13 38.12-34.63.08-.1.22-.13.32-.06.06.04.09.11.09.19-.22 16.07-.62 30.59-1.21 43.55-.52 11.35-2.06 21.1-6.07 31.4-7.1 18.22-22.83 27.22-41.6 30.17-12.55 1.97-24.99 2.29-37.33.94-16.44-1.79-29.45-8.3-39.02-19.53-7.99-9.37-12.83-15-14.53-16.91-7.32-8.25-16.37-12.24-27.15-11.98-6.61.16-12.44 2.23-17.51 6.21-13.31 10.43-13.5 28.01-5.88 42.01 8.85 16.24 25.37 27.97 42.54 35.47 19.17 8.38 39.45 13.17 60.82 14.37 20.22 1.13 39.96.34 59.21-2.37 5.93-.84 12.26-2.15 18.99-3.93 15.7-4.17 30.62-10.95 42.4-21.16 20.82-18.04 30.64-43.92 33.95-70.98 1.48-12.09 2.22-21.49 2.23-28.21.07-59.1.08-129.64.03-211.61 0-12.23-.96-25.7-6.14-36.87-3.19-6.88-8.73-11.26-16.62-13.14-17.47-4.16-34.18 1.88-40.47 19.49-1.74 4.86-2.65 9.57-2.72 14.14-.05 2.7-.06 6.74-.03 12.13 0 .17-.13.3-.3.3-.09 0-.18-.04-.24-.12-15.73-21.25-38.06-38.48-64.13-43.79-29.56-6.03-61.42-2.86-87.15 13.07Zm62.51 300.17c0 .09.06.16.15.17 11.44 1.03 22.82.77 34.13-.76 6.49-.88 14.99-4.66 19.02-9.86.06-.08.05-.19-.03-.25a.168.168 0 0 0-.18-.02c-6.97 3.29-14.61 5.65-22.92 7.1-11.76 2.04-21.79 3.21-30.08 3.52a.09.09 0 0 0-.09.09Z"/><path class="cls-3" d="M521.49 366.13c0-.15-.14-.27-.29-.26-.08 0-.15.04-.2.09-.53.59-2.33 2.68-5.42 6.26-8.03 9.29-16.41 17-25.16 23.12-21.4 14.94-47.32 19.59-73.13 17.58-26.75-2.08-51.97-15.15-66.36-38.05-3.35-5.33-6.1-11.67-8.26-19-4.26-14.54-5.66-30.23-5.67-45.33-.03-60.33-.02-108.4.03-144.2 0-3.43.59-7.66 1.75-12.67 2.53-10.91 8.49-18.55 17.87-22.92 5.81-2.71 12.52-3.61 20.13-2.72 12.27 1.45 21.02 7.62 26.26 18.53 4.49 9.33 4.33 18.81 4.32 30.93-.07 55.23-.05 91.67.04 109.32.03 5.99.54 13.32 1.51 22 2.37 20.96 10.31 43.38 33.54 48.43 22.57 4.9 45.33-4.01 59.98-21.66 6.68-8.03 10.74-17.28 12.18-27.75 1.81-13.19 2.72-28.5 2.72-45.93 0-24.43.05-53.65.04-95.05-.01-6.26 1.81-15.88 5.01-21.63 6.51-11.75 16.69-17.57 30.56-17.46 14.65.11 24.93 6.62 30.82 19.53 3.18 6.96 3.78 15.98 3.78 25.59 0 113.44 0 181.58-.02 204.43 0 .68-.26 3.05-.77 7.1-1.12 8.77-5.08 17.47-12.22 23-9.86 7.65-24.54 8.54-35.23 2.73-12.2-6.66-17.63-20.14-17.72-33.82-.04-6.28-.07-9.68-.09-10.19Z"/><path class="cls-6" d="M721.24 174.31c0 .1.08.18.18.18.05 0 .1-.03.14-.07 2.6-3.56 6.63-8.21 12.08-13.94 17.11-17.96 37.37-28.5 60.76-31.62 34.47-4.59 72.94 4.18 93.9 34.69 9.09 13.24 14.39 27.58 15.88 43.03 1.08 11.3 1.48 22.14 1.48 34.39 0 44.07 0 87.7.01 130.88 0 17.88-6.25 35.74-25.32 40.95-4.64 1.27-9.91 1.48-15.81.63-9.3-1.34-17.08-6.54-22.15-14.42-5.42-8.43-6.88-18.4-6.88-28.49-.03-43.26-.03-82.56-.01-117.89.01-16.35-1.63-33.05-7.78-47.88-6.97-16.84-21.29-21.74-38.11-22.3-28.25-.93-52.26 18.28-59.84 45.09-1.23 4.37-2.21 10.75-2.92 19.13-.8 9.45-1.22 18.19-1.25 26.23-.13 33.82-.15 66.22-.08 97.21.03 12.46-1.97 24.43-9.94 33.17-11.4 12.51-32.71 14.48-46.05 4.04-10.49-8.22-14.32-21.16-14.32-34.7 0-38.27 0-106.1-.02-203.47 0-8.78.82-15.58 2.48-20.4 4.09-11.91 12.26-18.85 24.52-20.8.87-.14 3.18-.19 6.93-.15 13.77.14 23.94 8.28 28.97 20.79 3.06 7.59 3.42 16.8 3.15 25.72Z"/><path class="cls-2" d="M1372.53 170.6c3.76-5.96 6.03-9.53 6.81-10.7 1.97-2.95 5.79-7.71 11.46-14.29 8.76-10.15 19.66-15.92 32.7-17.3 20.17-2.13 38.91 1.96 56.22 12.27 10.95 6.53 18.34 16.25 17.63 29.55-.51 9.53-4.93 17.19-13.28 22.98-4.75 3.29-9.91 4.88-15.47 4.75-2.01-.05-5.53-.86-10.54-2.45-14.84-4.69-27.61-8.48-42.01-6.32-20.34 3.04-29.62 21.41-34.25 39.31-3.03 11.72-5.01 25.05-5.92 40-2.15 35.13-.95 83.35-1.3 104.99-.17 10.47-2.7 22.06-9.87 29.72-6.65 7.11-14.86 10.72-24.63 10.85-13.92.18-24.13-5.62-30.63-17.4-4.72-8.54-5.24-18.39-5.24-29.16-.03-107.37-.02-172.87.05-196.5.01-6.57 1.13-13.55 3.36-20.94 2.29-7.61 6.56-13.5 12.81-17.67 4.02-2.69 9.02-4.18 14.99-4.49 14.79-.75 26.85 3.65 32.26 18.3 3.14 8.52 4.63 16.65 4.47 24.39 0 .11.08.2.19.21.07 0 .14-.04.19-.1Z"/><path class="cls-4" d="M1561.54 229a.97.97 0 0 1-.4.24c-3.29 1.19-7.55 1.72-12.78 1.58-10.18-.27-18.2-4.29-24.06-12.07-7.53-10.01-4.57-26.38.35-37.13 11.96-26.18 37.47-40.25 64.18-47.66 11.95-3.32 26.11-5.32 42.5-5.99 15.69-.65 31.17-.13 46.44 1.57 28.42 3.17 58.07 12.3 72.98 38.5 8.76 15.39 11.87 33.68 13.24 52.88.32 4.48.45 14.81.4 31-.08 23.57-.24 42.8-.47 57.71-.13 8.31.1 15 .7 20.05.98 8.17 2.17 14.74 3.56 19.71 4.59 16.36 7.01 24.45 8.42 32.01 2.28 12.24-6.02 22.43-16.06 28.21-5.32 3.07-11.15 4.51-17.48 4.32-8.97-.27-16.92-5.73-22.86-12.15-7.49-8.1-14.09-17.01-19.81-26.72a.615.615 0 0 0-.9-.17c-11.72 9.17-24.07 17.12-37.04 23.87-24.8 12.9-52.86 17.39-80.35 14.29-35-3.94-64.66-26.2-73.07-61.19-1.35-5.64-1.95-12.21-1.79-19.71.83-39.09 29.68-64.97 65.77-73.35 1.55-.36 20.86-4.46 57.95-12.3 21.65-4.58 42.96-9.98 63.95-16.21.19-.06.32-.24.31-.43-.38-12.95-2.74-26.82-9.61-37.75-10.45-16.65-39.36-15.93-57.25-14.37-12.23 1.07-23.23 4.04-32.82 11.52-5.57 4.34-9.91 8.79-13 13.35-6.06 8.91-10.46 15.34-13.2 19.29-1.66 2.39-3.2 4.25-4.62 5.58-.64.61-1.55 1.03-2.72 1.27-.18.04-.34.13-.46.25Zm42.03 67.24c-9.65 3.99-19.69 10.75-23.67 21.03-.76 1.96-.81 3.88-1.39 5.91-.31 1.08-.5 2.58-.59 4.5-.35 7.81 1.27 14.57 4.84 20.3 7.49 12.01 18.69 18.59 33.62 19.72 15.05 1.14 29.59-1.85 43.6-8.97 16.46-8.36 27.81-21.27 31.8-39.13 3.39-15.15 3.85-30.39 3.45-46.14 0-.19-.16-.34-.35-.33-.04 0-.08 0-.11.02-6.25 2.25-13.09 4.29-20.51 6.13-15.81 3.93-30.97 7.34-45.47 10.23-1.96.39-3.73.82-5.32 1.28-2.41.7-4.2 1.05-5.37 1.04-.34 0-.67.06-.98.19-1.53.63-3.8 1.31-6.81 2.06-2.53.63-4.78 1.35-6.74 2.16Z"/><path class="cls-3" d="M1835.08 270.76c0-63.74.02-98.52.09-104.33.26-21.1 12.34-38.79 35.12-38.79s34.86 17.68 35.12 38.78c.07 5.81.11 40.59.12 104.33 0 63.73-.03 98.51-.1 104.32-.25 21.11-12.34 38.79-35.11 38.79-22.78.01-34.87-17.67-35.12-38.78-.07-5.81-.11-40.59-.12-104.32Z"/><path class="cls-6" d="M2133.53 346.95c3.9-7.2 2.67-17.99-.61-24.78-2.31-4.8-5.74-8.61-10.29-11.44-4.01-2.49-8.41-4.66-13.22-6.51-7.42-2.87-14.52-5.17-21.3-6.91-26.72-6.88-47.58-12.27-70.12-21.62-15.8-6.55-31.47-17.14-41.11-31.26-7.24-10.58-10.18-22.59-10.24-35.37-.12-28.47 17.41-52.76 41.65-66.09 14.06-7.73 29.64-12.46 46.74-14.18 30.22-3.05 62.51-.26 90.89 11.72 19.26 8.11 42.25 25.79 44.78 48.32 1.84 16.3-7.75 29.15-24.17 31.13-10.27 1.23-19.06-.04-26.67-6.89-4.2-3.77-9.29-8.99-13.08-13.88-3.68-4.75-7.17-8.67-10.48-11.74-9.2-8.56-18.66-12.73-31.63-13.94-9.07-.85-17.4-.42-24.99 1.29-9.54 2.14-20.51 7.73-25.37 16.28-5.49 9.66-2.36 21.75 6.9 28.42 6.69 4.82 14.67 8.58 23.94 11.28 11.61 3.39 24.93 6.91 39.96 10.56 38.83 9.43 95.89 26.83 99.33 75.97.71 10.22-.37 20.53-3.25 30.92-8.14 29.46-29.95 47.69-58.15 57.11-7.97 2.67-16.12 4.63-24.45 5.9-19.41 2.97-39.23 3.53-59.47 1.67-17.18-1.59-33.24-5.9-48.19-12.94-11.82-5.57-23.02-13.03-31.48-22.8-9.82-11.33-16.94-26.66-15.73-41.88.47-5.81 2.8-11.05 6.99-15.74 6.71-7.51 15.8-10.53 27.25-9.07 15.91 2.02 20.86 18.25 29.01 29.36 8.97 12.23 20.89 21.83 35.77 25.3 10.28 2.39 20.64 3.27 31.07 2.63 14.81-.9 32.49-7.46 39.72-20.82Z"/><path class="cls-1" d="M2263.69 270.77c0-63.73.02-98.51.09-104.32.26-21.1 12.34-38.78 35.11-38.78 22.77-.01 34.86 17.67 35.12 38.77.07 5.81.11 40.59.12 104.32.01 63.73-.02 98.5-.09 104.32-.25 21.1-12.33 38.78-35.1 38.78-22.78.01-34.86-17.67-35.12-38.77-.07-5.81-.12-40.59-.13-104.32Z"/><path class="cls-2" d="M2467.08 148.59c3.06 7.59 3.42 16.8 3.15 25.72 0 .1.08.18.18.18.05 0 .1-.03.14-.07 2.6-3.56 6.63-8.21 12.09-13.94 17.11-17.96 37.37-28.5 60.77-31.62 34.48-4.59 72.95 4.18 93.91 34.7 9.09 13.25 14.39 27.59 15.88 43.04 1.08 11.3 1.48 22.14 1.48 34.4v130.9c0 17.88-6.25 35.75-25.33 40.96-4.64 1.27-9.91 1.48-15.81.63-9.3-1.35-17.08-6.55-22.15-14.43-5.42-8.43-6.88-18.4-6.88-28.49-.03-43.27-.03-82.58 0-117.92.01-16.35-1.63-33.05-7.78-47.89-6.97-16.84-21.29-21.74-38.12-22.3-28.25-.93-52.27 18.28-59.85 45.09-1.23 4.37-2.21 10.75-2.92 19.14-.8 9.45-1.22 18.19-1.25 26.23-.13 33.83-.16 66.24-.09 97.23.03 12.46-1.97 24.43-9.94 33.17-11.41 12.52-32.72 14.48-46.06 4.04-10.5-8.22-14.32-21.16-14.32-34.71 0-38.28 0-106.11-.01-203.5 0-8.79.82-15.59 2.48-20.41 4.09-11.91 12.26-18.85 24.53-20.8.87-.14 3.18-.19 6.93-.15 13.77.14 23.94 8.28 28.97 20.8Z"/><path class="cls-4" d="M2765.66 144.25c25.73-15.93 57.59-19.1 87.15-13.07 26.07 5.31 48.4 22.54 64.13 43.79.1.13.29.16.42.06.08-.06.12-.15.12-.24-.03-5.39-.02-9.43.03-12.13.07-4.57.98-9.28 2.72-14.14 6.29-17.61 23-23.65 40.47-19.49 7.89 1.88 13.43 6.26 16.62 13.14 5.18 11.17 6.14 24.64 6.14 36.87.05 81.97.04 152.51-.03 211.61 0 6.72-.75 16.12-2.23 28.21-3.31 27.06-13.13 52.94-33.95 70.98-11.78 10.21-26.7 16.99-42.4 21.16-6.73 1.78-13.06 3.09-18.99 3.93-19.25 2.71-38.99 3.5-59.21 2.37-21.37-1.2-41.65-5.99-60.82-14.37-17.17-7.5-33.69-19.23-42.54-35.47-7.62-14-7.43-31.58 5.88-42.01 5.07-3.98 10.9-6.05 17.51-6.21 10.78-.26 19.83 3.73 27.15 11.98 1.7 1.91 6.54 7.54 14.53 16.91 9.57 11.23 22.58 17.74 39.02 19.53 12.34 1.35 24.78 1.03 37.33-.94 18.77-2.95 34.5-11.95 41.6-30.17 4.01-10.3 5.55-20.05 6.07-31.4.59-12.96.99-27.48 1.21-43.55a.23.23 0 0 0-.22-.23c-.08 0-.15.03-.19.1-10.31 14.5-23.52 26.76-38.12 34.63-18.14 9.78-39.79 12.52-60.72 10.73-56.11-4.78-90.75-48.15-101.09-100.52-3.53-17.85-4.71-36.66-3.56-56.41 2.43-41.8 19.12-82.85 55.97-105.65Zm49.99 202.78c1.94 1.15 3.75 1.84 6.81 3.13 1.97.83 3.71 1.45 5.22 1.86 16.66 4.6 32.5 3.19 47.51-4.22 16.69-8.23 28.28-23.94 34.35-41.2 4.85-13.78 5.91-29.48 5.08-45.27-.86-16.38-4.35-33.56-12.31-47.48-10.77-18.82-25.89-29.69-45.34-32.61-11.01-1.65-21.33-.91-30.96 2.22-30.8 10.04-43.59 41.62-45.57 71.27-2.33 35.07 2.57 73.13 35.21 92.3Z"/><path class="cls-5" d="M1031.87 244.7c5.91-34.88 28.52-66.08 67.54-64.17 11.77.58 22.6 4.54 32.49 11.87 32.06 23.81 36.16 71.81 29.26 107.54-3.78 19.59-14.22 39.65-31.74 50.25-16.88 10.23-37.75 11.97-55.94 4.55-41.59-16.97-48.12-71.59-41.61-110.04Zm89.99-16.4c-5.9-4.47-12.1-7.74-18.61-9.83-5.18-1.66-9.84-1.62-14.97.09-6.53 2.17-12.32 5.29-17.39 9.36-.31.25-.57.53-.79.85-8.35 11.97-13.63 24.81-15.83 38.5-1.2 7.46-1.13 15.8.2 25.02 1.08 7.45 3.42 12.94 6.45 19.54 4.59 10.02 11.67 17.18 21.23 21.48 3.89 1.75 7.97 2.66 12.26 2.74 5.07.09 9.2-.25 12.4-1.04 5.47-1.34 10.77-4.24 15.91-8.69 3.59-3.11 6.72-7.35 9.41-12.72 2.99-5.95 4.94-10.86 5.87-14.74 2.97-12.34 3.18-26.61-.31-39.22-3.18-11.49-8.23-21.71-15.15-30.67-.19-.25-.42-.48-.68-.67ZM2815.65 347.03c-32.64-19.17-37.54-57.23-35.21-92.3 1.98-29.65 14.77-61.23 45.57-71.27 9.63-3.13 19.95-3.87 30.96-2.22 19.45 2.92 34.57 13.79 45.34 32.61 7.96 13.92 11.45 31.1 12.31 47.48.83 15.79-.23 31.49-5.08 45.27-6.07 17.26-17.66 32.97-34.35 41.2-15.01 7.41-30.85 8.82-47.51 4.22-1.51-.41-3.25-1.03-5.22-1.86-3.06-1.29-4.87-1.98-6.81-3.13Zm3.28-118.23c-7.29 10.36-11.99 21.49-14.1 33.38-2.89 16.18-1.3 37.4 8.71 52.03 4.87 7.1 11.27 12.18 19.2 15.24 5.49 2.12 11.3 1.96 17.71 1.84 2.67-.05 5.36-.55 8.07-1.49 8.12-2.83 14.86-7.57 20.21-14.23 2.89-3.59 5.73-8.67 8.52-15.23 4.17-9.84 4.69-21.59 3.26-31.91-1.97-14.25-7.24-27.29-15.81-39.11-.26-.36-.56-.68-.91-.95-6.36-5.11-13.41-8.6-21.16-10.49-3.31-.81-9.12-.93-12.2-.15-7.66 1.92-14.48 5.25-20.47 9.98-.4.31-.74.68-1.03 1.09ZM1579.9 317.27c3.98-10.28 14.02-17.04 23.67-21.03 1.96-.81 4.21-1.53 6.74-2.16 3.01-.75 5.28-1.43 6.81-2.06.31-.13.64-.19.98-.19 1.17 0 2.96-.34 5.37-1.04 1.59-.46 3.36-.89 5.32-1.28 14.5-2.89 29.66-6.3 45.47-10.23 7.42-1.84 14.26-3.88 20.51-6.13.18-.07.37.02.44.2.01.04.02.07.02.11.4 15.75-.06 30.99-3.45 46.14-3.99 17.86-15.34 30.77-31.8 39.13-14.01 7.12-28.55 10.11-43.6 8.97-14.93-1.13-26.13-7.71-33.62-19.72-3.57-5.73-5.19-12.49-4.84-20.3.09-1.92.28-3.42.59-4.5.58-2.03.63-3.95 1.39-5.91Zm87.37 1.69c-14.61 3.02-29.32 6.3-44.15 9.84-7.29 1.75-13.31 4.33-19.04 8.37-.26.17-.32.52-.14.79.01.02.02.03.03.04 1.57 1.9 3.66 3.49 6.25 4.78 6.27 3.1 15.9 1.99 23.06 1.15 5.39-.64 11-3.28 16.23-5.86 8.17-4.05 14.96-10.23 18.17-18.63a.351.351 0 0 0-.21-.46.442.442 0 0 0-.2-.02ZM1007.76 848.2a.975.975 0 0 0 .34 1.34c.02.01.04.03.07.04a202.389 202.389 0 0 1 31.26 19.02c3.19 2.36 5.42 4.31 6.71 5.85 3.19 3.82 7.26 9.26 8.48 14.2 2.12 8.56 4.08 14.53 3.17 22.14-.11.94-.11 1.88.02 2.8.52 3.91.73 6.35.63 7.32-.2 1.97-.69 5.76-1.47 11.37-.82 5.94-3.08 10.57-6.6 14.68-.7.82-5.55 5.7-14.56 14.63-3.07 3.04-8.81 5.22-14.04 5.94-5.18.72-11.4 2.04-16.92 1.3-7.14-.96-13.04-1.48-18.72-3.35-6.13-2.01-12.73-4.96-19.81-8.84-16.31-8.93-30.88-18.92-47.15-30.16-.27-.19-.63-.24-.94-.12-9.91 3.75-19.52 6.53-28.81 8.33-27.4 5.3-54.94 7.52-83.09 4.98-18.46-1.66-35.12-4.62-49.99-8.89-26.95-7.72-51.68-21.89-71.65-42.24-6.13-6.25-11.11-10.86-16.49-17.14-20.72-24.16-33.9-54.07-40.26-85.28-4.5-22.07-6.83-43.5-6.99-64.28-.09-12.03.29-23.98 1.14-35.85 1.46-20.41 5.78-40.49 11.23-59.63 5.75-20.2 14.72-38.99 26.92-56.38 5.54-7.9 10.92-14.69 16.14-20.36 5.6-6.09 11.97-11.94 19.12-17.56 19.27-15.14 40.98-26.54 64.33-32.66 8.79-2.31 19.69-5.05 26.91-6.22 28.33-4.6 56.26-4.57 83.79.1 7.43 1.27 16.6 3.34 27.52 6.22 28.03 7.42 52.44 21.04 73.89 39.8 4.9 4.28 9.33 8.68 13.3 13.21 18.86 21.5 32.19 45.57 39.98 72.21 6.46 22.07 10.86 45.01 11.95 68.12.21 4.31.4 11.49.57 21.54.46 25.94-2.09 51.54-7.58 76.83-4.41 20.31-11.88 39.31-22.4 56.99ZM966 850.47c25.26-28.16 39.44-61.65 45.12-99.02 2.63-17.23 3.6-35.59 2.93-55.06-1.05-30.39-6.86-60.16-19.44-87.5-16.41-35.67-42.41-61.76-78-78.26-13.03-6.05-26.64-10.41-40.83-13.1-31.61-5.99-62.71-6.06-93.31-.19-14.79 2.84-28.63 7.34-41.53 13.5-33.04 15.79-57.76 40.22-74.16 73.3-6.6 13.31-11.55 26.77-14.84 40.38-7.15 29.63-9.16 60.09-6.02 91.39 3.24 32.28 12.49 64.76 29.99 92.02 21.06 32.79 50.55 55.03 88.47 66.7 17.06 5.25 34.8 8.23 53.21 8.94 35.28 1.38 71.52-2.57 103.36-18.51.25-.13.55-.11.78.06a592.195 592.195 0 0 0 50.73 33.63c6.67 3.95 13.15 7.15 19.43 9.62 9.37 3.68 19.76 5.91 28.87.75 8.57-4.85 15.12-14.66 13.96-25.23-.92-8.31-3.97-13.16-10.9-18.15-4.33-3.11-8.34-5.7-12.03-7.76-20.53-11.42-31.41-17.47-45.74-27.07a.29.29 0 0 1-.08-.4c0-.01.02-.03.03-.04ZM1487.13 842l.75-2.07s.02-.05.04-.08c4.19-6.23 7.37-10.67 9.56-13.31 8.6-10.37 16.31-19.33 23.13-26.88 35.21-38.98 61.51-68.03 78.9-87.14.15-.17.14-.44-.03-.59a.41.41 0 0 0-.28-.11c-33.33 0-51.34 1.1-75.32-2.99-6.08-1.04-12.2-2.12-16.27-6.19l-10.38-10.38c-3.29-3.29-4.75-6.93-5.49-11.79-1.42-9.28-2.48-14.6-1.48-22.49.11-.87.13-1.75.04-2.63-.72-7.73 1.27-14.86 2.74-20.86.82-3.36 2.29-6.68 4.4-9.95 4.22-6.55 9.69-11.82 16.42-15.83 6.79-4.03 15.31-5.51 21.32-6.8 2.94-.64 7.24-.96 12.89-.95 18.07.01 71.91.02 161.52.02 4.95 0 10.37.47 16.27 1.42.48.08 4.54.99 12.17 2.72 5.2 1.18 9.13 2.48 11.79 3.9 5.15 2.75 9.21 5.5 12.18 8.27 2.94 2.74 5.56 6.15 7.87 10.24a.31.31 0 0 0 .53.02c1.84-2.9 4.92-7.64 7.33-10.12 4.77-4.91 10.22-8.73 16.35-11.46 1.18-.53 3.9-1.28 8.17-2.24 5.18-1.17 10.78-2.74 17.35-2.74 70.78-.03 124.37-.03 160.78-.01 7.95.01 14.74.34 21.73 1.66 1.08.2 4.59 1.01 10.52 2.43 9.19 2.19 14.72 4.75 22.43 10.68 2.11 1.62 3.88 3.42 5.33 5.39 3.47 4.73 6.22 8.35 7.58 13.61 2.31 8.97 4.04 15.05 3.29 23.09-.1 1.05-.08 2.11.07 3.16 1.16 8.31-.35 17.16-2.24 25.39-1.23 5.35-4.2 11.06-8.91 17.11-5.44 6.99-12.98 14.56-19.08 21.35-46.08 51.32-73.15 81.52-81.2 90.6-.98 1.11-1.82 1.92-2.53 2.45-.17.13-.2.37-.07.53.07.09.18.15.3.15 45.83 0 70.24.01 73.23.02 8.25.01 13.07 1.66 24.18 4.39 2.81.69 6.77 2.91 11.89 6.66.1.07.24.04.31-.06.04-.05.05-.11.03-.17-3.65-16.71-5.82-33.1-6.49-49.17-.36-8.7.18-20.06.48-28.31.63-16.84 3.77-32.37 8.22-48.95 3.67-13.66 8.96-26.11 15.87-37.36 5.45-8.86 11.25-16.72 17.42-23.58 6.77-7.54 13.67-13.17 22.26-19.33 13-9.33 27.12-16.08 42.36-20.25 11.31-3.1 24.19-6.11 36.44-7.32 15.99-1.57 31.54-1.1 46.66 1.42 3.21.53 9.41 1.9 18.6 4.11 19.82 4.76 35.23 12.97 51.67 25.3 19.22 14.41 33.84 34.26 42.97 56.22 3.9 9.38 6.43 20.12 8.57 30.23 1.49 7.07 2.28 13.23 2.38 18.48.11 5.54.21 9.54.31 12 .49 11.51-.97 23.86-3.3 33.55-.45 1.83-1.38 4.22-2.8 7.19-2.37 4.92-6.63 8.93-10.85 12.85-.22.2-.24.53-.05.76 3.51 4.11 6.28 8.05 8.29 11.84.37.69.65 1.43.84 2.19 1.77 7.08 4.42 15.21 3.26 23.16-.07.47-.07.95 0 1.42.6 4.47.7 8.32.31 11.55-.56 4.63-1.41 12.59-3.53 18.12-3.61 9.47-9.09 17.96-16.43 25.48-5.02 5.13-9.7 9.78-14.04 13.94-6.05 5.78-12.8 10.76-20.27 14.95-15.25 8.54-30.97 14.14-47.14 16.8-16.87 2.78-30.9 4.36-47.4 3.97-16.11-.37-32.67-2.51-49.67-6.4-17.09-3.91-32.53-10.84-46.32-20.78-10.49-7.57-21.15-18.7-29.59-27.78-2.08-2.24-5.13-6.12-9.15-11.65a.253.253 0 0 0-.35-.06c-.05.04-.09.09-.1.15-.17.65-.23 1.08-.2 1.3.7 4.59.93 8 .7 10.21-.67 6.33-1.4 11.38-2.2 15.13-.97 4.52-3.13 8.51-6.5 11.97-1.51 1.54-5.18 5.2-11.02 10.99-7.32 7.25-16.09 8.01-26.6 9.49-3.79.53-8.14.8-13.07.8-119.45-.03-180.55-.03-183.29 0-11.42.15-22.55-1.13-31.38-3.16-6.75-1.56-12.52-4.74-17.29-9.53a.646.646 0 0 0-.91 0l-.04.04c-8.05 9.57-18.16 10.33-29.69 11.95-3.26.46-7.17.69-11.72.69-124.49 0-188.69-.01-192.59-.04-3.52-.03-9.93-.85-19.24-2.46-5.95-1.03-10.87-2.81-14.78-5.36-2.28-1.48-5.01-3.84-8.18-7.07-6.12-6.22-9.59-8.94-12.36-14.41-.5-.99-1.3-2.92-2.4-5.81-.04-.09-.14-.12-.23-.08-.05.02-.08.06-.09.11-1.29 7.3-4.47 14.04-9.65 19.34-.31.33-3.48 3.52-9.51 9.58-3.3 3.32-6.2 5.63-8.71 6.92-8.02 4.14-12.68 4.17-23.9 5.74-6.7.94-11.94-.32-21.58-1.79-7.68-1.17-13.55-5.01-19.39-10.82-5.7-5.65-9.02-9.01-9.95-10.06-7.92-8.9-9.4-19.26-11.15-32.27-.55-4.07-.8-9.19-.76-15.36 0-1.26.01-67.44.01-198.55 0-4.63.16-9.93.48-15.9.25-4.73.78-8.9 1.6-12.51 1.71-7.53 3.21-15 7.54-21.8 3.12-4.9 6.45-9.15 10-12.75.17-.18.17-.46 0-.64-4.54-4.37-8.12-8-10.75-10.89-3.94-4.33-6.13-10.7-7.16-17.78-1.36-9.31-2.32-14.14-1.19-21.44.08-.55.1-1.09.07-1.64-.19-2.76-.28-4.24-.29-4.43-.29-5.78 1.35-11.69 2.91-18.3 1.19-5.01 3.36-9.81 6.51-14.39 3.35-4.84 6.91-8.74 10.68-11.71 4.58-3.6 8.44-6.23 11.59-7.89 4.98-2.63 9.51-3.42 16.98-5.16 3.59-.83 6.56-1.27 8.92-1.3 7.48-.11 13.78 1.77 21.15 3.61 7.68 1.91 14.2 6.7 20.28 11.44 1.92 1.49 3.81 3.49 5.67 5.99 3.53 4.75 6.31 8.56 8.14 14.21.38 1.16 1.45 5.59 3.21 13.29.77 3.38 1.02 7.64.76 12.78-.05.99-.02 1.97.07 2.95.82 8.73-.22 14.53-1.74 24.35-1.03 6.67-3.85 12.43-8.45 17.3-.73.77-3.86 3.9-9.39 9.38-.18.18-.17.46.01.64l.03.03c4.08 3.31 7.3 8.19 10.38 12.76 4.88 7.25 6.48 16.03 8.3 25.27 1.2 6.03.79 12.63 1.12 19.38.08 1.7.12 4.3.12 7.79v167.6c0 .17.14.31.31.31.13 0 .24-.08.28-.2Zm648.98-63.38c-.02-.28.19-.52.47-.54h.03c24.33-.02 69.4-.02 135.23 0 13.74.01 27.23-.94 40.18-5.88 6.63-2.54 11.17-6.11 14.46-11.94 2.75-4.88 4.33-10.47 4.74-16.76 1.3-20.05-2.52-39.43-11.46-58.13-18.43-38.57-56.29-62.69-98.77-66.82-50.06-4.87-100.99 8.57-130.91 51.35-15.62 22.31-23.65 49.93-25.35 77.02-1.76 28.21 1.44 57.93 13.07 83.02 12.57 27.12 31.9 46.98 57.99 59.58 23.54 11.36 50.73 14.95 78.32 14.21 24.07-.65 45.84-5.92 65.31-15.8 13.88-7.05 27.28-17.16 36.2-29.27 5.49-7.45 9.07-14.53 10.74-21.23 3.42-13.69-1.37-26.03-15.98-29.56-4.07-.99-8.33-1.09-12.78-.32-4.35.75-7.39 1.92-9.11 3.52-9.1 8.44-22.04 20.87-32.91 28.8-15.66 11.42-30.92 17.44-50.71 17.26-40.2-.38-64.86-31.79-68.11-69.43-.3-3.49-.52-6.51-.65-9.08Zm-473.57 39.33a.38.38 0 0 0 .27.64c44.42 0 68.87 0 73.36.01 7.56.01 12.64 1.53 22.46 4.03 4.44 1.13 8.35 3.1 11.73 5.91.13.1.31.09.42-.04 6.29-7.75 13.09-15.75 20.42-23.99 11.09-12.47 24.69-27.55 40.78-45.22 15.15-16.65 29.3-32.3 42.44-46.93.12-.13.12-.33-.01-.45a.317.317 0 0 0-.23-.09c-20.55.01-33.84.02-39.89.03-12.99.02-23.82-1.13-35.64-3.06-5.19-.84-11.99-2.06-15.49-5.52-4.39-4.35-7.9-7.86-10.51-10.53-.2-.19-.51-.2-.7 0-.05.05-.08.1-.11.16-1.57 3.9-4.33 8.15-8.26 12.74-3.7 4.32-7.74 8.86-12.13 13.62-4.24 4.59-33.29 36.88-87.15 96.86-.36.4-.95 1.01-1.76 1.83Zm586.75-2.52c.1-.09.11-.24.02-.34a.25.25 0 0 0-.18-.08h-79.11c-.18 0-.33.15-.33.33 0 .07.02.13.06.18 4.89 7.13 11.4 12.37 19.52 15.72 3.88 1.6 8.01 2.45 12.4 2.55 3.77.09 8.03-.02 12.8-.35 3.59-.24 7.12-1.09 10.6-2.56 8.49-3.58 16.57-8.73 24.22-15.45Z"/><path class="cls-3" d="M966 850.47c-.11.12-.1.3.01.41.01.01.02.02.04.03 14.33 9.6 25.21 15.65 45.74 27.07 3.69 2.06 7.7 4.65 12.03 7.76 6.93 4.99 9.98 9.84 10.9 18.15 1.16 10.57-5.39 20.38-13.96 25.23-9.11 5.16-19.5 2.93-28.87-.75-6.28-2.47-12.76-5.67-19.43-9.62a592.195 592.195 0 0 1-50.73-33.63.735.735 0 0 0-.78-.06c-31.84 15.94-68.08 19.89-103.36 18.51-18.41-.71-36.15-3.69-53.21-8.94-37.92-11.67-67.41-33.91-88.47-66.7-17.5-27.26-26.75-59.74-29.99-92.02-3.14-31.3-1.13-61.76 6.02-91.39 3.29-13.61 8.24-27.07 14.84-40.38 16.4-33.08 41.12-57.51 74.16-73.3 12.9-6.16 26.74-10.66 41.53-13.5 30.6-5.87 61.7-5.8 93.31.19 14.19 2.69 27.8 7.05 40.83 13.1 35.59 16.5 61.59 42.59 78 78.26 12.58 27.34 18.39 57.11 19.44 87.5.67 19.47-.3 37.83-2.93 55.06-5.68 37.37-19.86 70.86-45.12 99.02Zm-98.32-15.36c-.03-.15-.14-.28-.31-.41-13.38-10-29.58-17.53-44.13-25.2-5.56-2.93-9.44-5.42-11.64-7.48-7.09-6.65-6.72-17.97-.17-25.03 3.34-3.59 7.03-5.89 11.08-6.92 8.89-2.25 22.13 2.77 30.68 6.8 16.92 7.98 34.87 19.43 51.92 31.69.25.18.59.14.79-.09 15.85-18.34 24.62-41.28 28.18-65.38 3.59-24.32 3.46-48.33-.39-72.04-2.22-13.67-6.22-26.66-12-38.97-11.83-25.19-30.15-42.44-54.96-51.74-15.81-5.93-34.67-7.84-50.89-5.94-35.72 4.16-63.15 24.37-78.3 56.69-8.67 18.5-13.28 38.66-14.73 59.06-2.1 29.56.38 61.04 11.73 88.3 12.26 29.42 37.16 53.83 68.26 61.52 21.98 5.44 43.56 3.91 64.73-4.59.11-.04.17-.16.15-.27ZM1392.66 552.65c-.57-10.56 2.12-19.32 10.09-26.56 12.93-11.74 32.84-12.87 46.79-3.06 8.83 6.22 12.87 15.35 13.43 25.86.56 10.51-2.48 20.03-10.59 27.15-12.82 11.25-32.75 12.25-46.85 1.95-8.7-6.35-12.3-14.77-12.87-25.34Z"/><path class="cls-5" d="M867.68 835.11c.02.11-.04.23-.15.27-21.17 8.5-42.75 10.03-64.73 4.59-31.1-7.69-56-32.1-68.26-61.52-11.35-27.26-13.83-58.74-11.73-88.3 1.45-20.4 6.06-40.56 14.73-59.06 15.15-32.32 42.58-52.53 78.3-56.69 16.22-1.9 35.08.01 50.89 5.94 24.81 9.3 43.13 26.55 54.96 51.74 5.78 12.31 9.78 25.3 12 38.97 3.85 23.71 3.98 47.72.39 72.04-3.56 24.1-12.33 47.04-28.18 65.38-.2.23-.54.27-.79.09-17.05-12.26-35-23.71-51.92-31.69-8.55-4.03-21.79-9.05-30.68-6.8-4.05 1.03-7.74 3.33-11.08 6.92-6.55 7.06-6.92 18.38.17 25.03 2.2 2.06 6.08 4.55 11.64 7.48 14.55 7.67 30.75 15.2 44.13 25.2.17.13.28.26.31.41Zm-84.96-30.39.89-10.52v-.2c-.95-6.35.21-9.51 2.02-17.29 1.62-6.98 6.2-12.66 11.05-17.94.61-.67 3.92-3.04 9.92-7.13 1.52-1.04 2.96-1.37 4.65-2 1.57-.59 5.84-1.59 12.8-3 2.17-.45 4.11-.53 5.82-.25 13.95 2.26 26.44 5.85 39.54 12.55a277.22 277.22 0 0 1 29.8 17.67c.13.1.32.07.42-.07 0-.01.01-.02.02-.03 6.25-11.81 10.18-24.26 11.8-37.33 1.43-11.43 1.88-21.91 1.35-31.44-.53-9.63-1.98-18.83-4.35-27.62-4.61-17.09-11.99-33.29-23.13-46.82-.77-.94-1.64-1.79-2.59-2.54-11.46-9.09-24.4-15.33-38.81-18.71-6.52-1.52-12.26-1.27-19.6-1.3-4.33-.03-9.18.71-14.55 2.22-12.37 3.47-23.55 9.22-33.54 17.26-.93.75-1.89 1.71-2.9 2.9-3.62 4.26-6.99 9.22-10.11 14.89-6.36 11.56-11.13 24.36-14.32 38.41-4.12 18.16-3.81 38.17-.92 56.53 1.65 10.45 5.05 20.96 10.22 31.53 3.28 6.71 6.76 12.24 10.45 16.59 4.23 5 8.85 9.58 13.86 13.73.06.04.14.03.18-.02a.09.09 0 0 0 .03-.07ZM1243.32 916.44a.64.64 0 0 0-.83-.08c-1.81 1.27-3.41 2.39-4.78 3.34-10.45 7.27-21.04 12.27-31.76 14.98-7.5 1.89-17.1 3.45-28.79 4.67-9.89 1.03-19.57.99-29.03-.12-12.05-1.43-21.56-3.28-28.54-5.55-10.2-3.31-19.72-8.52-28.55-15.62-5.08-4.08-12.04-11.49-16.28-15.82-12.19-12.44-18.32-26.94-21.7-45.25-2.63-14.26-4.24-29.52-4.19-46.37.07-25.09.07-72.37.01-141.85 0-3.66.13-8.15.42-13.47.24-4.49.73-8.32 1.46-11.49 1.97-8.56 3.34-16.21 7.7-22.83 2.11-3.19 5.49-8.19 8.45-10.89a70.8 70.8 0 0 1 12.84-9.32c5.7-3.23 12.95-4.19 20.15-5.9 9.17-2.17 21.17 1.22 29.37 3.58 5.51 1.59 8.92 4.33 14.82 8.5 6.12 4.33 11.21 11.71 14.64 18.08 1.94 3.6 2.78 7.26 4.06 12.41 1.17 4.73 1.98 8.4 2.41 11.01 1.04 6.29.59 13.01.98 19.62.08 1.3.12 3.92.12 7.87v87.07c0 16.17-.25 28.83 2.34 42.85.51 2.81 2.06 6.59 4.64 11.36 1.21 2.26 3.17 4.22 5.86 5.89 4.4 2.72 12.14 2.33 16.6 1.94 2.18-.19 4.9-1 8.16-2.43 10.66-4.64 19.81-13.59 22.83-25.09.47-1.81.97-6.35 1.5-13.64.65-9.13.98-15.42.97-18.87-.03-54.25.02-85.75.17-94.51.06-3.64.12-7.42.18-11.35.15-9.68 2.07-17.8 4.46-26.64 1.66-6.18 4.02-9.88 7.86-15.46 3.43-4.99 8.36-9.6 14.8-13.85 3.79-2.49 6.8-4.05 9.04-4.66 10.81-2.96 20.09-5.81 31.07-3.37 7.63 1.71 13.59 2.6 17.82 5.04 5.65 3.25 11.87 7.38 16.04 12.31 5.88 6.95 9.71 13.48 11.8 22.4 2.1 8.92 3.51 14.3 3.69 22.07.17 7.87.43 14.83.43 22-.02 121.57-.02 184.64.01 189.22.05 8.12-.15 14.12-.62 18-1.3 10.88-2.26 19.46-7.38 28.01-2.66 4.46-9.61 10.44-12.28 13.26-5.89 6.26-11.81 10.01-20.07 11.19-6.35.91-12.95 2.49-19.18 1.78-10.53-1.21-20.96-1.85-29.52-9.72-2.21-2.03-6.94-6.8-14.2-14.3ZM2602.21 741.5c.07.07 2.06 1.58 5.97 4.54 7.26 5.53 13.14 12.85 18.41 20.66 3.94 5.83 6.69 11.48 8.24 16.94 2.76 9.76 5.28 19.52 4.93 29.34-.2 5.33.69 11.12.28 16.89-.64 8.88-1.74 17.45-3.31 25.72-2.16 11.37-6.48 21.76-12.96 31.17-2.61 3.79-6.29 8.03-11.02 12.72-6.37 6.31-10.39 10.23-12.05 11.77-3.93 3.63-8.99 7.15-15.18 10.55-12.88 7.06-27.24 11.88-43.09 14.45-12.47 2.02-22.74 3.32-30.83 3.9-14.63 1.04-29.05.79-43.26-.76-2.49-.27-8.78-1.18-18.85-2.74-16.83-2.61-32.57-8.17-47.22-16.7-6.25-3.64-12.69-8.27-18.34-13.94-6.69-6.72-10.87-10.93-12.54-12.63-5.48-5.57-10.21-13.01-14.2-22.3-3.36-7.85-4.1-17.61-5.23-27.25-.21-1.77-.02-4.65.55-8.65.07-.53.09-1.05.05-1.58-.64-8 .54-13.08 2.31-20.32 1.13-4.6 2.58-8.23 4.36-10.88 4.39-6.52 7.49-10.59 13.3-14.88 4.37-3.23 8.35-5.93 13.58-7.36.16-.04.26-.2.22-.37a.194.194 0 0 0-.09-.14c-4.97-4.87-9.42-9.25-13.9-14.18-7.46-8.21-12.27-17.74-14.44-28.57-.41-2.01-1.04-6.18-1.91-12.52-.79-5.81-1.12-10.01-.98-12.62.49-9.16-.08-18.36 2-27.92 1.73-7.98 3.22-13.83 4.48-17.55 2.9-8.58 7.41-15.91 13.56-24.46 2.78-3.87 5.43-7.05 7.96-9.56 14.37-14.23 31.19-24.23 50.46-30 2.63-.79 8.3-2.16 17.03-4.13 5.84-1.31 11.6-2.26 17.28-2.84 30.14-3.07 60.32.75 89.15 10.01 14.39 4.62 27.56 11.84 39.51 21.65 9.39 7.72 15.96 15.9 21.9 26.21 1.84 3.19 3.23 6.61 4.18 10.27 2.03 7.86 4.05 14.32 3.53 21.38-.17 2.32-.13 4.54.1 6.66.36 3.21.46 5.44.29 6.67-1.34 10.3-1.4 16.33-5.45 23.44-1.03 1.82-3.09 4.26-6.18 7.31-3.3 3.27-6.34 6.3-9.13 9.1-.96.96-2.34 1.72-3.43 2.59-.26.2-.31.58-.1.84.02.02.04.05.06.07Zm-114.11-41.45 18.87 5.24c.08.03.17-.02.2-.11s.03-.13.03-.13c.2-.7-3.86-2.43-9.05-3.87s-.37-.1-.37-.1c-5.18-1.44-9.54-2.04-9.75-1.35l-.04.13c-.02.08.03.17.11.19Zm27.61 131.47c-8.39-3.47-15.38-5.99-20.98-7.58-.81-.23-13.56-3.59-38.24-10.08a.307.307 0 0 0-.37.21.3.3 0 0 0 .05.26c4.6 6.32 10.39 12.41 17.9 16.12 3.84 1.91 8.56 3.11 14.15 3.62 7.64.69 15 .65 22.09-.13 2.11-.23 3.93-.84 5.46-1.83.15-.1.2-.3.11-.45a.39.39 0 0 0-.17-.14Z"/><path class="cls-6" d="M1256.43 855.8c-.53.59-2.33 2.68-5.42 6.26-8.03 9.3-16.42 17.01-25.17 23.13-21.4 14.95-47.32 19.6-73.14 17.6-26.76-2.08-51.98-15.15-66.38-38.06-3.35-5.33-6.1-11.67-8.26-19-4.27-14.54-5.67-30.23-5.68-45.34-.03-60.35-.03-108.42.01-144.23 0-3.43.59-7.66 1.75-12.67 2.53-10.92 8.49-18.56 17.87-22.93 5.81-2.71 12.53-3.61 20.14-2.72 12.27 1.45 21.02 7.62 26.27 18.53 4.49 9.33 4.33 18.81 4.32 30.93-.06 55.25-.04 91.7.05 109.35.03 5.99.54 13.32 1.52 22 2.37 20.97 10.31 43.39 33.55 48.44 22.57 4.9 45.34-4.02 59.99-21.67 6.68-8.04 10.74-17.29 12.18-27.76 1.81-13.19 2.72-28.5 2.71-45.94 0-24.44.05-53.66.03-95.07-.01-6.26 1.81-15.88 5.01-21.64 6.51-11.75 16.7-17.57 30.57-17.46 14.65.11 24.93 6.62 30.83 19.53 3.18 6.96 3.78 15.98 3.78 25.59.01 113.47.01 181.63 0 204.48 0 .68-.26 3.05-.77 7.1-1.12 8.77-5.08 17.47-12.22 23.01-9.86 7.65-24.54 8.54-35.23 2.73-12.21-6.66-17.64-20.14-17.73-33.82-.04-6.29-.07-9.69-.09-10.2 0-.15-.14-.27-.29-.26-.08 0-.15.04-.2.09Z"/><path class="cls-3" d="M1427.73 617.58c22.76-.01 34.85 17.67 35.1 38.76.07 5.81.11 40.57.12 104.28 0 63.71-.03 98.47-.1 104.28-.26 21.09-12.34 38.76-35.1 38.77-22.76 0-34.85-17.67-35.1-38.77-.07-5.81-.11-40.57-.12-104.28 0-63.71.03-98.47.1-104.28.26-21.09 12.34-38.76 35.1-38.76ZM2136.11 778.62c.13 2.57.35 5.59.65 9.08 3.25 37.64 27.91 69.05 68.11 69.43 19.79.18 35.05-5.84 50.71-17.26 10.87-7.93 23.81-20.36 32.91-28.8 1.72-1.6 4.76-2.77 9.11-3.52 4.45-.77 8.71-.67 12.78.32 14.61 3.53 19.4 15.87 15.98 29.56-1.67 6.7-5.25 13.78-10.74 21.23-8.92 12.11-22.32 22.22-36.2 29.27-19.47 9.88-41.24 15.15-65.31 15.8-27.59.74-54.78-2.85-78.32-14.21-26.09-12.6-45.42-32.46-57.99-59.58-11.63-25.09-14.83-54.81-13.07-83.02 1.7-27.09 9.73-54.71 25.35-77.02 29.92-42.78 80.85-56.22 130.91-51.35 42.48 4.13 80.34 28.25 98.77 66.82 8.94 18.7 12.76 38.08 11.46 58.13-.41 6.29-1.99 11.88-4.74 16.76-3.29 5.83-7.83 9.4-14.46 11.94-12.95 4.94-26.44 5.89-40.18 5.88-65.83-.02-110.9-.02-135.23 0-.28 0-.5.23-.5.51v.03Zm127.36-40.79c-1.38-13.52-3.38-26.11-9.39-38.4-11.88-24.29-35.97-35.11-62.25-32.05-17.15 1.99-30.69 10.14-40.63 24.45-9.24 13.3-13.34 30.15-14.96 45.86-.02.19.12.37.31.39h126.7c.12 0 .22-.1.22-.22v-.03Z"/><path class="cls-6" d="M2505.78 857.62c14.81-.9 32.49-7.46 39.72-20.82 3.9-7.2 2.67-17.99-.61-24.78-2.31-4.8-5.74-8.61-10.29-11.44-4.01-2.49-8.41-4.66-13.22-6.51-7.42-2.87-14.52-5.17-21.3-6.91-26.72-6.87-47.58-12.26-70.12-21.61-15.8-6.55-31.47-17.13-41.12-31.25-7.24-10.58-10.18-22.59-10.24-35.37-.12-28.47 17.4-52.76 41.64-66.09 14.06-7.73 29.64-12.46 46.74-14.19 30.22-3.05 62.51-.26 90.89 11.71 19.26 8.11 42.25 25.79 44.78 48.32 1.84 16.3-7.75 29.15-24.17 31.13-10.26 1.23-19.05-.04-26.67-6.89-4.2-3.77-9.29-8.99-13.08-13.88-3.68-4.75-7.17-8.67-10.48-11.74-9.2-8.55-18.66-12.72-31.63-13.93-9.07-.85-17.4-.42-24.99 1.29-9.54 2.14-20.5 7.73-25.36 16.28-5.49 9.66-2.36 21.75 6.9 28.42 6.69 4.82 14.67 8.58 23.94 11.28 11.61 3.39 24.93 6.9 39.96 10.55 38.83 9.43 95.89 26.82 99.33 75.96.72 10.22-.36 20.53-3.24 30.92-8.14 29.46-29.95 47.69-58.14 57.11a146.19 146.19 0 0 1-24.45 5.91c-19.41 2.97-39.23 3.53-59.47 1.67-17.18-1.58-33.24-5.89-48.19-12.93-11.82-5.57-23.02-13.03-31.48-22.8-9.82-11.33-16.94-26.65-15.73-41.87.47-5.81 2.79-11.05 6.98-15.74 6.71-7.51 15.8-10.53 27.25-9.08 15.91 2.02 20.86 18.25 29.01 29.36 8.97 12.23 20.89 21.83 35.77 25.29 10.28 2.39 20.64 3.27 31.07 2.63Z"/><path class="cls-2" d="M1661.2 675.28c.07-.1.05-.24-.05-.31a.201.201 0 0 0-.13-.04c-16.43-.02-50.41-.02-101.93-.01-11.71 0-23.62-.3-34.82-3.96-9.51-3.11-11.54-14.13-10.68-23.39 1.2-12.89 10.58-20.56 22.77-22.66 2.54-.44 6.21-.66 11.02-.66 41.06.02 94.38.02 159.96 0 12.17 0 24.1 1.14 34.73 6.89 4.27 2.3 7.36 5.96 9.28 10.97 4.81 12.55.87 26.07-7.4 36.4-7.03 8.79-16.62 18.62-25.18 28.16-40.93 45.65-81.23 90.58-120.91 134.79a.269.269 0 0 0 .2.45c67.01-.05 114.02-.03 141.03.05 4.73.02 9.54 1.14 14.43 3.36 13.2 6.02 17.96 20.26 13.9 33.75-3.97 13.17-17.68 18.11-30.83 18.09-33.12-.05-97.45-.06-192.99-.02-16.11.01-31.71-4.85-37.28-21.39-3.39-10.07-2-19.46 4.18-28.18 3.39-4.79 11.3-14.21 23.73-28.28 4.17-4.72 32.26-35.8 84.25-93.25 9.43-10.42 18.61-20.91 27.53-31.47 5.46-6.47 10.52-12.9 15.19-19.29Z"/><path class="cls-4" d="M1936.03 675.29c.07-.1.05-.24-.05-.31a.201.201 0 0 0-.13-.04c-16.43-.03-50.41-.03-101.93-.02-11.71 0-23.62-.3-34.82-3.96-9.51-3.11-11.54-14.13-10.68-23.39 1.2-12.89 10.58-20.56 22.77-22.66 2.54-.44 6.21-.66 11.02-.66 41.06.02 94.38.02 159.96.01 12.17 0 24.1 1.14 34.73 6.89 4.27 2.3 7.36 5.96 9.28 10.97 4.81 12.55.87 26.07-7.4 36.4-7.03 8.79-16.62 18.62-25.18 28.16-40.93 45.65-81.23 90.57-120.92 134.78a.269.269 0 0 0 .2.45c67.01-.04 114.03-.02 141.04.06 4.73.02 9.54 1.14 14.43 3.36 13.2 6.02 17.95 20.26 13.89 33.75-3.97 13.17-17.68 18.11-30.83 18.09-33.12-.05-97.45-.06-192.99-.03-16.11.01-31.71-4.85-37.28-21.39-3.39-10.07-2-19.46 4.18-28.18 3.39-4.79 11.31-14.21 23.74-28.28 4.17-4.72 32.26-35.8 84.25-93.25 9.43-10.42 18.61-20.91 27.53-31.47 5.46-6.46 10.52-12.89 15.19-19.28Z"/><path class="cls-5" d="M2263.47 737.83c.02.12-.07.23-.19.25h-126.69c-.19 0-.35-.15-.35-.35v-.04c1.62-15.71 5.72-32.56 14.96-45.86 9.94-14.31 23.48-22.46 40.63-24.45 26.28-3.06 50.37 7.76 62.25 32.05 6.01 12.29 8.01 24.88 9.39 38.4Zm-63.11-23.06c16.41 0 24.99 0 25.73-.02.26 0 .45-.22.45-.48 0-.14-.07-.27-.18-.35-4.95-3.79-10.43-6.68-16.45-8.68-3.5-1.17-6.16-1.36-9.55-1.36s-6.05.19-9.54 1.36c-6.03 2-11.51 4.89-16.46 8.67-.21.16-.25.45-.1.66.09.12.22.19.37.18.74.01 9.32.02 25.73.02Z"/></g></svg>