
<svg xmlns="http://www.w3.org/2000/svg" viewBox="0 0 800 800" style="enable-background:new 0 0 800 800" xml:space="preserve"><path d="M733.3 400c0 184.1-149.2 333.3-333.3 333.3-184.1 0-333.3-149.2-333.3-333.3C66.7 215.9 215.9 66.7 400 66.7c184.1 0 333.3 149.2 333.3 333.3zM400 591.7c13.8 0 25-11.2 25-25v-200c0-13.8-11.2-25-25-25s-25 11.2-25 25v200c0 13.8 11.2 25 25 25zm0-358.4c18.4 0 33.3 14.9 33.3 33.3S418.4 300 400 300s-33.3-14.9-33.3-33.3 14.9-33.4 33.3-33.4z" style="fill-rule:evenodd;clip-rule:evenodd;fill:#fff"/></svg>