
<svg xmlns="http://www.w3.org/2000/svg" viewBox="0 0 800 800" style="enable-background:new 0 0 800 800" xml:space="preserve"><path d="M733.3 400c0 184.1-149.2 333.3-333.3 333.3-184.1 0-333.3-149.2-333.3-333.3C66.7 215.9 215.9 66.7 400 66.7c184.1 0 333.3 149.2 333.3 333.3zm-199-101c9.8 9.8 9.8 25.6 0 35.4L367.7 501c-9.8 9.8-25.6 9.8-35.4 0l-66.7-66.7c-9.8-9.8-9.8-25.6 0-35.4 9.8-9.8 25.6-9.8 35.4 0l49 49 74.5-74.5L499 299c9.8-9.8 25.6-9.8 35.3 0z" style="fill-rule:evenodd;clip-rule:evenodd;fill:#fff"/></svg>