
<svg xmlns="http://www.w3.org/2000/svg" viewBox="0 0 800 800" style="enable-background:new 0 0 800 800" xml:space="preserve"><path d="M733.3 400c0 184.1-149.2 333.3-333.3 333.3-184.1 0-333.3-149.2-333.3-333.3C66.7 215.9 215.9 66.7 400 66.7c184.1 0 333.3 149.2 333.3 333.3zM299 299c9.8-9.8 25.6-9.8 35.4 0l65.7 65.7 65.7-65.7c9.8-9.8 25.6-9.8 35.4 0 9.8 9.8 9.8 25.6 0 35.4L435.4 400l65.7 65.7c9.8 9.8 9.8 25.6 0 35.4s-25.6 9.8-35.4 0L400 435.4 334.3 501c-9.8 9.8-25.6 9.8-35.4 0-9.8-9.8-9.8-25.6 0-35.4l65.7-65.7-65.6-65.6c-9.8-9.7-9.8-25.5 0-35.3z" style="fill-rule:evenodd;clip-rule:evenodd;fill:#fff"/></svg>